# xmcd CD database file
#
# Track frame offsets:
#	187
#	23780
#	47490
#	71355
#	97277
#	129080
#	146222
#	167067
#
# Disc length: 2452 seconds
#
# Revision: 0
# Processed by: cddbd v1.4PL0 Copyright (c) Steve Scherf et al.
# Submitted via: CDex 1.50beta8
#
DISCID=6a099208
DTITLE=Mal Waldron - All Alone
DYEAR=1966
DGENRE=Jazz
TTITLE0=All Alone
TTITLE1=Due Torri
TTITLE2=A View of S.Luca
TTITLE3=Blue Summer
TTITLE4=If You Think I'm Licked
TTITLE5=Three For Cicci
TTITLE6=Mosque Raid
TTITLE7=Waltz of Oblivious
EXTD=YEAR: 1966
EXTT0=
EXTT1=
EXTT2=
EXTT3=
EXTT4=
EXTT5=
EXTT6=
EXTT7=
PLAYORDER=
